REM MD5 e58501eed29f90cd05cacd61c5efaa63
FILE "Pro Logic Mahjong Haishin (Japan).bin" BINARY
  TRACK 01 MODE2/2352
    INDEX 01 00:00:00
  TRACK 02 AUDIO
    INDEX 00 01:50:03
    INDEX 01 01:56:11
  TRACK 03 AUDIO
    INDEX 00 64:53:00
    INDEX 01 64:55:00
REM LEADOUT 68:38:11
